PathFileType        4      (X/Y/Z)      C:\Users\pc\Desktop\IMUTRC\Sujet_05\Sujet_05_velo_60.trc         
DataRate	CameraRate	NumFrames	NumMarkers	Units	OrigDataRate	OrigDataStartFrame	OrigNumFrames
60.0	60.0	4	64	mm	60.0	725	966
Frame#	Time	pHipOrigin			pRightASI			pLeftASI			pRightCSI			pLeftCSI			pRightIschialTub			pLeftIschialTub			pSacrum			pL5SpinalProcess			pL3SpinalProcess			pT12SpinalProcess			pIJ			pT4SpinalProcess			pT8SpinalProcess			pPX			pC7SpinalProcess			pTopOfHead			pRightAuricularis			pLeftAuricularis			pBackOfHead			pRightAcromion			pLeftAcromion			pRightArmLatEpicondyle			pRightArmMedEpicondyle			pLeftArmLatEpicondyle			pLeftArmMedEpicondyle			pRightUlnarStyloid			pRightRadialStyloid			pRightOlecranon			pLeftUlnarStyloid			pLeftRadialStyloid			pLeftOlecranon			pRightTopOfHand			pRightPinky			pRightBallHand			pLeftTopOfHand			pLeftPinky			pLeftBallHand			pRightGreaterTrochanter			pRightKneeLatEpicondyle			pRightKneeMedEpicondyle			pRightPatella			pLeftGreaterTrochanter			pLeftKneeLatEpicondyle			pLeftKneeMedEpicondyle			pLeftPatella			pRightTibialTub			pRightLatMalleolus			pRightMedMalleolus			pLeftTibialTub			pLeftLatMalleolus			pLeftMedMalleolus			pRightHeelFoot			pRightFirstMetatarsal			pRightFifthMetatarsal			pRightPivotFoot			pRightHeelCenter			pRightToe			pLeftHeelFoot			pLeftFirstMetatarsal			pLeftFifthMetatarsal			pLeftPivotFoot			pLeftHeelCenter			pLeftToe			
		X1	Y1	Z1	X2	Y2	Z2	X3	Y3	Z3	X4	Y4	Z4	X5	Y5	Z5	X6	Y6	Z6	X7	Y7	Z7	X8	Y8	Z8	X9	Y9	Z9	X10	Y10	Z10	X11	Y11	Z11	X12	Y12	Z12	X13	Y13	Z13	X14	Y14	Z14	X15	Y15	Z15	X16	Y16	Z16	X17	Y17	Z17	X18	Y18	Z18	X19	Y19	Z19	X20	Y20	Z20	X21	Y21	Z21	X22	Y22	Z22	X23	Y23	Z23	X24	Y24	Z24	X25	Y25	Z25	X26	Y26	Z26	X27	Y27	Z27	X28	Y28	Z28	X29	Y29	Z29	X30	Y30	Z30	X31	Y31	Z31	X32	Y32	Z32	X33	Y33	Z33	X34	Y34	Z34	X35	Y35	Z35	X36	Y36	Z36	X37	Y37	Z37	X38	Y38	Z38	X39	Y39	Z39	X40	Y40	Z40	X41	Y41	Z41	X42	Y42	Z42	X43	Y43	Z43	X44	Y44	Z44	X45	Y45	Z45	X46	Y46	Z46	X47	Y47	Z47	X48	Y48	Z48	X49	Y49	Z49	X50	Y50	Z50	X51	Y51	Z51	X52	Y52	Z52	X53	Y53	Z53	X54	Y54	Z54	X55	Y55	Z55	X56	Y56	Z56	X57	Y57	Z57	X58	Y58	Z58	X59	Y59	Z59	X60	Y60	Z60	X61	Y61	Z61	X62	Y62	Z62	X63	Y63	Z63	X64	Y64	Z64	
725	12.067	0.0	1249.96063	7.653801422948546E-14	74.77128000000002	1333.35937	124.58788000000008	46.013099999999994	1354.23225	-122.82527999999992	30.056940000000008	1396.16354	113.82675000000009	6.122709999999994	1413.51122	-91.93342999999992	-44.80711	1191.51658	52.78519000000007	-56.68146	1200.14403	-50.09489999999993	-62.24756	1268.05046	8.720220000000081	-28.01604	1369.44625	11.688810000000085	30.24248	1475.01663	10.297290000000089	91.84066	1566.67175	6.493780000000091	352.70523	1584.48327	-11.410509999999924	244.35181	1695.34144	-6.864859999999911	167.26132	1645.3393	-0.0927699999999095	250.28898	1511.84566	-2.2264399999999234	296.76592	1727.34652	-11.13219999999991	575.81309	1727.81036	-70.04009999999992	492.22882	1716.30708	27.366660000000078	455.67809	1713.24573	-114.38335999999993	466.81029	1771.87532	-42.95173999999992	298.52852	1657.02811	189.8040300000001	279.60378	1649.1428	-200.5651499999999	361.61099	1401.2658	182.10425000000006	342.40795	1394.95755	128.48415000000006	380.53574	1416.57257	-191.19554999999994	364.30128	1407.75958	-136.92606999999995	456.97685	1182.70358	186.00052000000005	499.46475	1207.93657	192.77261000000004	328.58546	1391.24681	153.43884000000006	484.34351	1200.97895	-198.80255999999994	525.90373	1227.69623	-205.57463999999993	348.9945	1404.32715	-162.25182999999996	507.72113	1124.25953	351.96309	481.28215	1119.89942	269.95587	485.92057	1162.10901	211.14074000000005	604.47851	1148.84314	-337.12015	544.92124	1141.60721	-275.05813	522.28576	1181.96144	-219.11881999999994	27.830500000000008	1208.86426	144.99692000000007	198.70979	895.12173	87.10947000000004	198.15318	901.42997	16.976610000000047	231.73532	919.5198	51.300890000000045	21.70778999999999	1242.26086	-146.38843999999992	365.13619	1137.5254	-101.58132999999995	364.11574	1145.03964	-31.54123999999995	373.85642	1179.64223	-68.18472999999996	245.09396	864.60094	45.270950000000035	146.38844	504.10317	94.25263000000001	138.68867	503.08271	35.06643000000002	396.86296	1101.16021	-69.20517999999996	209.19261	778.88299	-123.84573999999998	209.84199	773.8735	-64.38122999999997	62.52586000000001	456.60578	71.43162000000002	189.15465	368.75416	8.53469000000001	199.45193	362.26037	85.99625000000002	212.1612	352.98354	42.76621000000001	95.8297	436.84612	65.30891000000003	277.56288	307.34151	30.24248	134.42133	722.10877	-102.78731999999997	271.71847	642.51353	-52.69241999999997	279.41824	644.27613	-130.71059	294.81779	632.40178	-89.05760999999997	169.76606	705.50324	-99.63319999999997	364.95065	592.88247	-83.02766999999999	
726	12.083	0.0	1249.96063	7.653801422948546E-14	74.77128000000002	1333.63767	124.40235000000008	46.105869999999996	1354.04671	-123.01081999999991	29.964170000000006	1396.34907	113.54845000000009	6.122709999999994	1413.32568	-92.21172999999992	-44.80711	1191.60934	52.87795000000007	-56.68146	1200.05126	-50.002139999999926	-62.24756	1268.05046	8.720220000000081	-28.01604	1369.44625	11.503270000000086	30.33525	1475.01663	10.11175000000009	92.02619	1566.57898	6.493780000000091	352.89077	1584.20496	-10.668359999999923	244.72288	1695.1559	-6.308249999999911	167.53962	1645.24653	0.1855400000000905	250.38175	1511.66012	-1.8553699999999227	297.137	1727.06821	-10.297289999999911	576.18417	1727.62482	-69.20517999999993	492.69266	1716.12155	28.294340000000076	456.04917	1712.96742	-113.45567999999993	467.0886	1771.59701	-42.02405999999992	298.52852	1656.74981	190.26787000000007	280.34593	1649.23557	-200.00853999999993	362.07484	1401.17303	182.47533000000007	342.87179	1394.86478	128.76246000000006	381.27788	1416.66534	-190.82447999999994	364.76512	1407.75958	-136.64776999999995	457.81176	1182.79635	186.46437000000006	500.29966	1208.02934	193.23645000000005	329.04931	1391.06128	153.80991000000006	484.99289	1200.97895	-198.52424999999994	526.55311	1227.789	-205.20356999999996	349.55111	1404.32715	-161.97351999999995	508.55605	1124.44506	352.5197	482.11707	1120.08495	270.51248	486.66272	1162.20178	211.60459000000006	605.03512	1149.21421	-336.84185	545.47785	1141.88551	-274.8726	522.93514	1182.0542	-218.84051999999994	28.016040000000007	1208.86426	144.90415000000007	203.62651	898.09031	85.16134000000004	203.25544	904.95517	15.028470000000043	236.4665	923.23053	49.72383000000004	21.61501999999999	1241.70425	-146.29566999999992	365.22896	1137.43263	-101.21025999999996	364.20851	1145.31794	-31.17015999999995	373.85642	1179.82776	-67.99918999999996	248.43362	866.178	43.322820000000036	135.62731	510.22588	94.99478000000002	127.4637	509.29819	35.90135000000002	398.62556	1102.3662	-68.37026999999996	223.2934	772.85305	-120.22776999999998	223.94278	768.49294	-60.67049999999996	49.53829000000001	466.34645	73.10145000000003	171.62143	372.37212	10.297290000000013	182.19702	366.15664	87.75885000000001	194.16414	355.85936	44.528800000000004	81.82168	445.1025	66.97874000000003	257.33938	307.34151	32.09785000000001	151.39793	712.6464	-98.70551999999998	292.40581	640.37986	-47.86845999999998	300.10558	641.95692	-125.88663999999997	315.96897	631.19579	-84.04811999999997	187.48482	697.89623	-95.45861999999997	387.9572	595.29445	-77.64709999999998	
727	12.1	0.0	1249.96063	7.653801422948546E-14	74.58575000000002	1334.10152	124.21681000000008	46.105869999999996	1353.58287	-123.28912999999991	29.778640000000006	1396.81291	113.08461000000008	6.122709999999994	1413.04737	-92.76833999999991	-44.80711	1191.70211	53.06349000000007	-56.58869	1199.86573	-49.90936999999993	-62.34033	1268.05046	8.627460000000081	-28.10881	1369.44625	11.039430000000085	30.33525	1475.01663	9.740680000000088	92.02619	1566.57898	6.215480000000091	352.98354	1584.01943	-9.833439999999923	244.81565	1695.06313	-5.751639999999911	167.63239	1645.15376	0.2783100000000905	250.38175	1511.56735	-1.5770599999999226	297.32253	1726.97544	-9.462369999999911	576.46247	1727.53205	-67.81365999999993	492.8782	1715.93601	29.50033000000008	456.42024	1712.87465	-112.24968999999993	467.3669	1771.50425	-40.72529999999992	298.25022	1656.4715	190.73171000000008	281.08807	1649.42111	-199.54469999999992	362.26037	1401.08026	182.75363000000004	343.24286	1394.77201	129.04076000000006	381.83449	1416.94365	-190.54616999999993	365.22896	1407.85235	-136.36945999999995	458.55391	1182.88912	186.83544000000006	500.94904	1208.21488	193.70030000000006	329.32761	1390.87574	154.08821000000006	485.5495	1201.25725	-198.24594999999994	527.10972	1227.97453	-204.83249999999995	350.10772	1404.51269	-161.69521999999995	509.29819	1124.72337	352.98354	482.85922	1120.27049	270.88356	487.40487	1162.38732	212.06843000000006	605.59173	1149.77082	-336.84185	546.03446	1142.25659	-274.77983	523.49175	1182.33251	-218.65497999999994	28.387110000000007	1209.14256	144.8113800000001	209.47091	901.80105	83.86258000000004	209.09984	909.03698	13.729710000000043	241.93983	927.68341	48.610610000000044	21.52225999999999	1240.77656	-146.29566999999992	364.67235	1135.02066	-101.02471999999996	363.74467	1143.46257	-31.07738999999995	373.57811	1177.60132	-68.18472999999996	252.51543	868.49721	42.116830000000036	125.4228	517.74011	95.64416000000001	117.07365	516.9052	36.64349000000002	399.73878	1101.53128	-67.72088999999995	236.37373	765.43158	-116.70256999999997	237.11588	761.62808	-57.14529999999996	37.478410000000004	477.38588	74.49298000000003	155.47974	377.84545	12.152650000000014	165.96256	371.90828	89.61422000000002	177.37307	360.77608	46.384170000000005	68.92688	454.75041	68.46304000000003	238.50741	309.47519	34.13875000000001	167.35409	702.07081	-94.99477999999998	311.42332	636.85466	-43.230049999999984	319.30863	638.15342	-121.24821999999998	335.54309	628.50551	-79.31692999999997	204.09035	688.99047	-91.46957999999997	409.10839	596.03659	-72.45206999999999	
728	12.117	0.0	1249.96063	7.653801422948546E-14	74.30744000000001	1334.84366	123.84574000000009	46.198629999999994	1352.93349	-123.84573999999992	29.50033000000001	1397.46229	112.34246000000009	6.122709999999994	1412.49076	-93.69601999999992	-44.80711	1191.98042	53.24903000000007	-56.49592	1199.49465	-49.72382999999993	-62.34033	1268.05046	8.349150000000082	-28.20158	1369.53902	10.390050000000086	30.14971	1475.1094	9.09130000000009	91.93343	1566.67175	5.751640000000091	352.98354	1584.01943	-8.998529999999924	244.81565	1695.06313	-5.287799999999911	167.53962	1645.24653	0.2783100000000905	250.28898	1511.56735	-1.4842899999999228	297.32253	1726.97544	-8.72021999999991	576.64801	1727.71759	-65.86551999999993	492.69266	1715.93601	31.170160000000077	456.79131	1713.06019	-110.76539999999993	467.45967	1771.59701	-39.14823999999992	297.4153	1656.1932	191.19555000000008	281.64468	1649.97772	-199.26639999999992	362.26037	1401.08026	182.84640000000005	343.33563	1394.77201	129.13353000000006	382.3911	1417.31472	-190.26786999999993	365.50726	1408.13065	-136.27668999999995	459.11052	1183.16742	187.11374000000006	501.50565	1208.67872	193.97860000000006	329.42038	1390.87574	154.18098000000006	486.01334	1201.62832	-198.15317999999994	527.57356	1228.43838	-204.64695999999995	350.47879	1404.88376	-161.50967999999995	509.8548	1125.18721	353.26184	483.50859	1120.64156	271.25463	488.05424	1162.75839	212.34673000000006	605.96281	1150.60574	-336.84185	546.4983	1142.90596	-274.77983	523.95559	1182.79635	-218.56220999999994	28.943720000000006	1209.97748	144.8113800000001	215.87193	906.25393	83.49151000000005	215.40809	913.58263	13.358640000000042	247.87701	932.78567	48.23954000000004	21.24394999999999	1239.1995	-146.29566999999992	363.37359	1130.28947	-100.93195999999996	362.81698	1139.38077	-31.07738999999995	372.92873	1173.05568	-68.55579999999996	257.06107	871.55857	41.93129000000004	115.49658	526.55311	96.38631000000002	107.14743	525.71819	37.29287000000003	400.29539	1098.28439	-67.34981999999995	248.52639	756.34029	-113.36290999999997	249.3613	753.18616	-53.80563999999997	26.253440000000005	489.353	75.51343000000003	140.54404	385.08138	14.100790000000014	150.93409	379.51528	91.65512000000001	161.97352	367.54817	48.610610000000015	56.86699000000001	465.51154	69.66902000000003	221.25249	314.02084	36.73626000000001	182.19702	690.382	-91.46957999999997	328.771	631.65964	-38.777169999999984	336.84185	632.86562	-116.79533999999997	353.35461	624.1454	-74.77127999999999	219.4899	678.87872	-87.75884999999997	428.21866	594.8306	-67.44257999999999	
